STARTFONT 2.3
FONT -FontForge-Fredoka One-Book-R-Normal--10-100-72-72-P-57-ISO10646-1
SIZE 10 72 72  4
FONTBOUNDINGBOX 14 13 -2 -3
COMMENT "Generated by fontforge, http://fontforge.sourceforge.net"
COMMENT "Copyright (c) 2011 Milena B Brandao (milenabbrandao@gmail.com), with Reserved Font Name "Fredoka""
STARTPROPERTIES 40
FOUNDRY "FontForge"
FAMILY_NAME "Fredoka One"
WEIGHT_NAME "Book"
SLANT "R"
SETWIDTH_NAME "Normal"
ADD_STYLE_NAME ""
PIXEL_SIZE 10
POINT_SIZE 100
RESOLUTION_X 72
RESOLUTION_Y 72
SPACING "P"
AVERAGE_WIDTH 57
CHARSET_REGISTRY "ISO10646"
CHARSET_ENCODING "1"
FONTNAME_REGISTRY ""
CHARSET_COLLECTIONS "ISO10646-1"
BITS_PER_PIXEL 4
FONT_NAME "FredokaOne-Regular"
FACE_NAME "Fredoka One"
COPYRIGHT "Copyright (c) 2011 Milena B Brandao (milenabbrandao@gmail.com), with Reserved Font Name "Fredoka""
FONT_VERSION "1.001"
FONT_ASCENT 8
FONT_DESCENT 2
UNDERLINE_POSITION -1
UNDERLINE_THICKNESS 1
X_HEIGHT 5
CAP_HEIGHT 7
RAW_ASCENT 800
RAW_DESCENT 200
NORM_SPACE 3
RELATIVE_WEIGHT 40
RELATIVE_SETWIDTH 50
SUPERSCRIPT_X 0
SUPERSCRIPT_Y 4
SUPERSCRIPT_SIZE 6
SUBSCRIPT_X 0
SUBSCRIPT_Y 1
SUBSCRIPT_SIZE 6
AVG_LOWERCASE_WIDTH 57
AVG_UPPERCASE_WIDTH 68
ENDPROPERTIES
CHARS 235
STARTCHAR space
ENCODING 32
SWIDTH 253 0
DWIDTH 3 0
BBX 1 1 0 0
BITMAP
00
ENDCHAR
STARTCHAR exclam
ENCODING 33
SWIDTH 267 0
DWIDTH 3 0
BBX 3 8 0 0
BITMAP
2500
8F30
8F30
8F30
8F30
2500
6C20
7F30
ENDCHAR
STARTCHAR quotedbl
ENCODING 34
SWIDTH 429 0
DWIDTH 4 0
BBX 4 5 0 3
BITMAP
2314
BC8F
AB7E
784B
0001
ENDCHAR
STARTCHAR numbersign
ENCODING 35
SWIDTH 749 0
DWIDTH 7 0
BBX 8 8 0 0
BITMAP
00320320
00D80E70
16FA7F92
5EFEEFE3
05F17F00
BFFFFFD0
3CC5DB30
0B70C600
ENDCHAR
STARTCHAR dollar
ENCODING 36
SWIDTH 475 0
DWIDTH 5 0
BBX 5 9 0 -1
BITMAP
029000
07F400
6FDF10
9E3200
2CFD20
443F70
8FDF30
07F300
02B000
ENDCHAR
STARTCHAR percent
ENCODING 37
SWIDTH 838 0
DWIDTH 8 0
BBX 8 9 0 -1
BITMAP
03400460
5FE80C30
886B5A00
5FE8D200
034697A4
001D5EAD
00785D6E
01D11CF7
00200000
ENDCHAR
STARTCHAR ampersand
ENCODING 38
SWIDTH 748 0
DWIDTH 7 0
BBX 8 9 0 -1
BITMAP
029A5000
0CECF200
0EAAF200
0BFF7000
3EFC0770
AFBFBF90
AF9EFFB1
3DFFADF3
00100000
ENDCHAR
STARTCHAR quotesingle
ENCODING 39
SWIDTH 208 0
DWIDTH 2 0
BBX 2 4 0 4
BITMAP
23
BC
AB
78
ENDCHAR
STARTCHAR parenleft
ENCODING 40
SWIDTH 384 0
DWIDTH 4 0
BBX 4 11 0 -3
BITMAP
0297
0CD5
3F40
8E00
AD00
AC00
9D00
6F10
1F70
07F9
0022
ENDCHAR
STARTCHAR parenright
ENCODING 41
SWIDTH 384 0
DWIDTH 4 0
BBX 4 11 0 -3
BITMAP
8810
6EA0
06F1
02F5
00F7
00F8
01F6
03F3
0AD0
CF40
3200
ENDCHAR
STARTCHAR asterisk
ENCODING 42
SWIDTH 503 0
DWIDTH 5 0
BBX 5 6 0 2
BITMAP
016100
37F730
CFFFC0
2EFF30
3FAF30
010100
ENDCHAR
STARTCHAR plus
ENCODING 43
SWIDTH 527 0
DWIDTH 5 0
BBX 5 6 0 0
BITMAP
001000
02F600
59FB70
AFFFE0
03F700
019300
ENDCHAR
STARTCHAR comma
ENCODING 44
SWIDTH 238 0
DWIDTH 2 0
BBX 3 4 0 -2
BITMAP
8C10
9F10
5C00
6200
ENDCHAR
STARTCHAR hyphen
ENCODING 45
SWIDTH 433 0
DWIDTH 4 0
BBX 4 2 0 1
BITMAP
9FFE
5998
ENDCHAR
STARTCHAR period
ENCODING 46
SWIDTH 237 0
DWIDTH 2 0
BBX 3 2 0 0
BITMAP
8C10
AE10
ENDCHAR
STARTCHAR slash
ENCODING 47
SWIDTH 526 0
DWIDTH 5 0
BBX 5 9 0 -1
BITMAP
0006A0
000DD0
006F70
00DE10
05F700
0CE100
5F8000
BE1000
450000
ENDCHAR
STARTCHAR zero
ENCODING 48
SWIDTH 608 0
DWIDTH 6 0
BBX 6 9 0 -1
BITMAP
015610
1DFFD1
7FA9F8
AF10FB
BF00EC
AF31FA
5FDCF6
09FFA0
001100
ENDCHAR
STARTCHAR one
ENCODING 49
SWIDTH 407 0
DWIDTH 4 0
BBX 4 8 0 0
BITMAP
0032
07FA
8FFA
9DFA
01FA
01FA
01FA
01E9
ENDCHAR
STARTCHAR two
ENCODING 50
SWIDTH 609 0
DWIDTH 6 0
BBX 6 8 0 0
BITMAP
015510
2EFFD1
9F89F7
AF04F9
114EF4
09FF60
8FFDC9
8FFFFC
ENDCHAR
STARTCHAR three
ENCODING 51
SWIDTH 608 0
DWIDTH 6 0
BBX 6 9 0 -1
BITMAP
015510
2EFFE2
5F87F9
027DF6
00AFF4
7A02FC
9FBBF9
1BFFB1
001100
ENDCHAR
STARTCHAR four
ENCODING 52
SWIDTH 592 0
DWIDTH 6 0
BBX 6 8 0 0
BITMAP
042051
1FB4F8
4F84F8
8F44F8
BFCCF8
9DDEF8
0004F8
0003E6
ENDCHAR
STARTCHAR five
ENCODING 53
SWIDTH 530 0
DWIDTH 5 0
BBX 5 9 0 -1
BITMAP
045530
5FFFD0
7F9640
9FD910
AFFFB0
140DF0
AEBFD0
5EFD30
002000
ENDCHAR
STARTCHAR six
ENCODING 54
SWIDTH 560 0
DWIDTH 6 0
BBX 6 9 0 -1
BITMAP
000440
04DFF2
1EF960
7F9400
BFFFB0
AF6AF4
7FACF3
1BFF70
001000
ENDCHAR
STARTCHAR seven
ENCODING 55
SWIDTH 561 0
DWIDTH 6 0
BBX 6 8 0 0
BITMAP
355541
CFFFF6
477EF3
005FB0
01DF20
06F800
0AF200
0BD000
ENDCHAR
STARTCHAR eight
ENCODING 56
SWIDTH 582 0
DWIDTH 6 0
BBX 6 9 0 -1
BITMAP
016610
2EFFC0
7F8AF4
5FDEF2
4FFFE2
AF36F7
8FBCF5
1BFF90
001100
ENDCHAR
STARTCHAR nine
ENCODING 57
SWIDTH 560 0
DWIDTH 6 0
BBX 6 8 0 0
BITMAP
026500
3EFFA0
AF5AF3
9FADF5
1BFFF4
002DE1
5CFF60
7FD600
ENDCHAR
STARTCHAR colon
ENCODING 58
SWIDTH 238 0
DWIDTH 2 0
BBX 3 5 0 0
BITMAP
AE10
7B10
0000
8C10
AE10
ENDCHAR
STARTCHAR semicolon
ENCODING 59
SWIDTH 237 0
DWIDTH 2 0
BBX 3 7 0 -2
BITMAP
AE10
7B10
0000
8C10
9F10
5C00
6200
ENDCHAR
STARTCHAR less
ENCODING 60
SWIDTH 627 0
DWIDTH 6 0
BBX 6 7 0 0
BITMAP
00007B
004DFB
2BFE60
CFD100
3CFD40
006EFA
00019C
ENDCHAR
STARTCHAR equal
ENCODING 61
SWIDTH 478 0
DWIDTH 5 0
BBX 5 5 0 0
BITMAP
011100
AFFF70
477730
9EEE60
599930
ENDCHAR
STARTCHAR greater
ENCODING 62
SWIDTH 627 0
DWIDTH 6 0
BBX 7 7 0 0
BITMAP
79200000
8FE70000
04CFD400
000AFF10
02BFE600
7FF91000
9B300000
ENDCHAR
STARTCHAR question
ENCODING 63
SWIDTH 512 0
DWIDTH 5 0
BBX 5 8 0 0
BITMAP
047400
7FFF60
AC2DC0
006EA0
03FB10
015100
04C400
04F500
ENDCHAR
STARTCHAR at
ENCODING 64
SWIDTH 908 0
DWIDTH 9 0
BBX 9 9 0 -2
BITMAP
0049A83000
09FB9BFA00
5F48AA6E60
AA7EAF48B0
B8AC7F27C0
9B4EEF0B90
3F712FEE20
06EF935100
0014200000
ENDCHAR
STARTCHAR A
ENCODING 65
SWIDTH 765 0
DWIDTH 8 0
BBX 8 8 0 0
BITMAP
00031000
002FC000
009FF400
02FEFB00
09F6BF30
2FFFFFB0
8F977CF3
AD0004F5
ENDCHAR
STARTCHAR B
ENCODING 66
SWIDTH 646 0
DWIDTH 6 0
BBX 7 8 0 0
BITMAP
25553000
9FFFF700
9F87EE00
9F37ED00
9F3CFD00
9F309F20
9FCCFE10
7FFFD400
ENDCHAR
STARTCHAR C
ENCODING 67
SWIDTH 679 0
DWIDTH 7 0
BBX 7 8 0 0
BITMAP
00155100
06EFFF50
4FE77C30
9F400000
BF100000
8F700200
1EFCCF50
02BFFC20
ENDCHAR
STARTCHAR D
ENCODING 68
SWIDTH 704 0
DWIDTH 7 0
BBX 7 8 0 0
BITMAP
25541000
9FFFE600
9F88EF40
9F303FA0
9F301FC0
9F307F90
9FCDFE20
7FFEA200
ENDCHAR
STARTCHAR E
ENCODING 69
SWIDTH 638 0
DWIDTH 6 0
BBX 7 8 0 0
BITMAP
15555400
9FFFFF10
9F877600
9F987000
9FFFF000
9F532000
9FCCCB00
7FFFFE10
ENDCHAR
STARTCHAR F
ENCODING 70
SWIDTH 637 0
DWIDTH 6 0
BBX 7 8 0 0
BITMAP
15555400
9FFFFF10
9F877600
9F987000
9FFFF000
9F542000
9F300000
7E200000
ENDCHAR
STARTCHAR G
ENCODING 71
SWIDTH 714 0
DWIDTH 7 0
BBX 7 9 0 -1
BITMAP
00266200
07FFFF50
4FD66B20
AF326630
BF16FFB0
8F701FB0
1EFCCFB0
02BFFC30
00010000
ENDCHAR
STARTCHAR H
ENCODING 72
SWIDTH 699 0
DWIDTH 7 0
BBX 7 8 0 0
BITMAP
24000420
9F203F90
9F303F90
9F868F90
9FFFFF90
9F314F90
9F303F90
7E202E70
ENDCHAR
STARTCHAR I
ENCODING 73
SWIDTH 257 0
DWIDTH 3 0
BBX 3 8 0 0
BITMAP
2400
9F20
9F30
9F30
9F30
9F30
9F30
7E20
ENDCHAR
STARTCHAR J
ENCODING 74
SWIDTH 549 0
DWIDTH 5 0
BBX 6 9 0 -1
BITMAP
000240
000AF1
000AF1
000AF1
000AF1
130BF1
BFCFC0
4EFC20
001000
ENDCHAR
STARTCHAR K
ENCODING 75
SWIDTH 639 0
DWIDTH 6 0
BBX 6 8 0 0
BITMAP
240033
9F22EE
9F4DF5
9FEF60
9FFC00
9FBFB0
9F3AFA
7E20BC
ENDCHAR
STARTCHAR L
ENCODING 76
SWIDTH 587 0
DWIDTH 6 0
BBX 6 8 0 0
BITMAP
240000
9F2000
9F3000
9F3000
9F3000
9F3000
9F9773
7FFFF8
ENDCHAR
STARTCHAR M
ENCODING 77
SWIDTH 870 0
DWIDTH 9 0
BBX 9 8 0 0
BITMAP
1400001400
9F7000CF40
9FF409FF40
9FFE7FFF40
9F7FFD8F40
9F28F47F40
9F20107F40
7E10006E30
ENDCHAR
STARTCHAR N
ENCODING 78
SWIDTH 720 0
DWIDTH 7 0
BBX 7 8 0 0
BITMAP
14000320
9F700EC0
9FF40EC0
9FFD1EC0
9F7FBEC0
9F29FFC0
9F20CFC0
7E102EA0
ENDCHAR
STARTCHAR O
ENCODING 79
SWIDTH 775 0
DWIDTH 8 0
BBX 8 9 0 -1
BITMAP
00265100
06FFFE40
3FD68FE1
9F3007F6
BF1005F7
9F600AF5
2EFBCFC0
03CFFB10
00011000
ENDCHAR
STARTCHAR P
ENCODING 80
SWIDTH 632 0
DWIDTH 6 0
BBX 6 8 0 0
BITMAP
255410
9FFFE4
9F88EE
9F30CF
9FCDFB
9FFEA1
9F3000
7E2000
ENDCHAR
STARTCHAR Q
ENCODING 81
SWIDTH 830 0
DWIDTH 8 0
BBX 9 9 0 -1
BITMAP
0026510000
06FFFE4000
3FD68FE100
9F3007F600
BF1005F700
9F600AF400
2EFBCFFB00
03CFFABD10
0001100000
ENDCHAR
STARTCHAR R
ENCODING 82
SWIDTH 631 0
DWIDTH 6 0
BBX 7 8 0 0
BITMAP
25541000
9FFFE400
9F88EE00
9F30CF10
9FCDFB00
9FFFF700
9F31ED00
7E209D10
ENDCHAR
STARTCHAR S
ENCODING 83
SWIDTH 583 0
DWIDTH 6 0
BBX 6 9 0 -1
BITMAP
026510
3EFFE1
8F7680
7FC720
09EFF3
2507F8
AFACF6
2BFF90
001000
ENDCHAR
STARTCHAR T
ENCODING 84
SWIDTH 731 0
DWIDTH 7 0
BBX 8 8 0 0
BITMAP
35555550
CFFFFFF2
124F9210
003F8000
003F8000
003F8000
003F8000
002E6000
ENDCHAR
STARTCHAR U
ENCODING 85
SWIDTH 726 0
DWIDTH 7 0
BBX 7 9 0 -1
BITMAP
24000330
9F200DD0
9F300ED0
9F300ED0
9F300ED0
7F602FB0
1EFBEF50
03DFE600
00010000
ENDCHAR
STARTCHAR V
ENCODING 86
SWIDTH 783 0
DWIDTH 8 0
BBX 8 8 0 0
BITMAP
24000041
BE1003F9
6F800AF4
0DE12FB0
06F69F40
00DDFB00
007FF400
001CA000
ENDCHAR
STARTCHAR W
ENCODING 87
SWIDTH 999 0
DWIDTH 10 0
BBX 10 8 0 0
BITMAP
2400220042
CE10DD01FB
8F54FF45F7
2FA9FF9AF2
0CEECDEEC0
07FF78FF70
02FF23FF20
00AB00BA00
ENDCHAR
STARTCHAR X
ENCODING 88
SWIDTH 741 0
DWIDTH 7 0
BBX 8 8 0 0
BITMAP
25000250
BF501DF2
3EF4CF80
04FFF900
00BFF300
09FCFD20
7FC17FD1
9D2008E2
ENDCHAR
STARTCHAR Y
ENCODING 89
SWIDTH 686 0
DWIDTH 7 0
BBX 7 8 0 0
BITMAP
24000510
BF304F90
4FC1DF30
09FCF700
01DFC000
007F5000
007F5000
006F3000
ENDCHAR
STARTCHAR Z
ENCODING 90
SWIDTH 643 0
DWIDTH 6 0
BBX 7 8 0 0
BITMAP
25555300
BFFFFE00
366DF800
005FC000
02EE2000
0BF60000
7FFBBA10
9FFFFF20
ENDCHAR
STARTCHAR bracketleft
ENCODING 91
SWIDTH 348 0
DWIDTH 3 0
BBX 4 11 0 -3
BITMAP
5BB3
9FB3
9F00
9F00
9F00
9F00
9F00
9F00
9F30
8FF4
1441
ENDCHAR
STARTCHAR backslash
ENCODING 92
SWIDTH 528 0
DWIDTH 5 0
BBX 6 9 0 -1
BITMAP
790000
AF3000
3FA000
0AF200
03F900
00BF20
004F90
000BF1
000360
ENDCHAR
STARTCHAR bracketright
ENCODING 93
SWIDTH 348 0
DWIDTH 3 0
BBX 4 11 0 -3
BITMAP
8BA0
8DF1
08F1
08F1
08F1
08F1
08F1
08F1
29F1
CFF1
2430
ENDCHAR
STARTCHAR asciicircum
ENCODING 94
SWIDTH 526 0
DWIDTH 5 0
BBX 5 4 0 2
BITMAP
005100
08FB10
6F8EA0
250340
ENDCHAR
STARTCHAR underscore
ENCODING 95
SWIDTH 826 0
DWIDTH 8 0
BBX 9 3 0 -3
BITMAP
1111111100
CFFFFFFF10
3444444400
ENDCHAR
STARTCHAR grave
ENCODING 96
SWIDTH 482 0
DWIDTH 5 0
BBX 3 3 1 5
BITMAP
9720
BFD0
0120
ENDCHAR
STARTCHAR a
ENCODING 97
SWIDTH 596 0
DWIDTH 6 0
BBX 6 6 0 0
BITMAP
003131
1CFEF8
8FACF8
BF25F8
7FDEF8
09EBE7
ENDCHAR
STARTCHAR b
ENCODING 98
SWIDTH 592 0
DWIDTH 6 0
BBX 6 8 0 0
BITMAP
5A1000
9F2000
9F3300
9FFFC1
9FBBF7
9F43F9
9FEEF5
7EBE80
ENDCHAR
STARTCHAR c
ENCODING 99
SWIDTH 517 0
DWIDTH 5 0
BBX 5 6 0 0
BITMAP
004400
1CFFB0
8FAA70
AF2000
7FDEA0
08EE70
ENDCHAR
STARTCHAR d
ENCODING 100
SWIDTH 598 0
DWIDTH 6 0
BBX 6 8 0 0
BITMAP
0001A5
0003F9
0034F9
1CFEF9
8FABF9
AF25F9
6FDEF9
08EBE7
ENDCHAR
STARTCHAR e
ENCODING 101
SWIDTH 573 0
DWIDTH 6 0
BBX 6 7 0 -1
BITMAP
004410
1DFFD2
9F88F7
BFEEE3
7FA790
1AFFE2
000100
ENDCHAR
STARTCHAR f
ENCODING 102
SWIDTH 450 0
DWIDTH 5 0
BBX 5 8 0 0
BITMAP
029A00
0BFE10
1ED400
CFFF50
5FE710
0EC000
0EC000
0DB000
ENDCHAR
STARTCHAR g
ENCODING 103
SWIDTH 585 0
DWIDTH 6 0
BBX 6 9 0 -3
BITMAP
003141
1DFEF7
9F9CF7
AF17F7
6FEFF7
07CBF7
1B6BF4
2EFF90
003200
ENDCHAR
STARTCHAR h
ENCODING 104
SWIDTH 605 0
DWIDTH 6 0
BBX 6 8 0 0
BITMAP
5A1000
9F2000
9F3300
9FEFC1
9FBBF7
9F22FA
9F21FA
7E11E8
ENDCHAR
STARTCHAR i
ENCODING 105
SWIDTH 255 0
DWIDTH 3 0
BBX 3 8 0 0
BITMAP
5A10
8F10
1300
9F20
9F20
9F20
9F20
7E10
ENDCHAR
STARTCHAR j
ENCODING 106
SWIDTH 252 0
DWIDTH 3 0
BBX 5 11 -2 -3
BITMAP
005A10
007E10
001400
009F20
009F20
009F20
009F20
009F20
17EE00
4FE500
031000
ENDCHAR
STARTCHAR k
ENCODING 107
SWIDTH 536 0
DWIDTH 5 0
BBX 6 8 0 0
BITMAP
5A1000
9F2000
9F2000
9F4D90
9FEF70
9FFC00
9FCFC1
7E29D1
ENDCHAR
STARTCHAR l
ENCODING 108
SWIDTH 327 0
DWIDTH 3 0
BBX 4 8 0 0
BITMAP
5A10
9F20
9F20
9F20
9F20
9F20
8FB1
3DE1
ENDCHAR
STARTCHAR m
ENCODING 109
SWIDTH 851 0
DWIDTH 9 0
BBX 9 6 0 0
BITMAP
1313013000
9FDFBEF900
9FAEFAEF00
9F3AF2AF10
9F29F2AF20
7E18E18E10
ENDCHAR
STARTCHAR n
ENCODING 110
SWIDTH 606 0
DWIDTH 6 0
BBX 6 6 0 0
BITMAP
131300
9FEFC1
9FBBF7
9F32FA
9F21FA
7E11E8
ENDCHAR
STARTCHAR o
ENCODING 111
SWIDTH 600 0
DWIDTH 6 0
BBX 6 7 0 -1
BITMAP
004410
1DFFD1
8F99F9
BF11FB
7FDDF7
09FF90
000100
ENDCHAR
STARTCHAR p
ENCODING 112
SWIDTH 582 0
DWIDTH 6 0
BBX 6 9 0 -3
BITMAP
131300
9FEFB0
9FBBF6
9F44F8
9FEFF3
9FBC50
9F2000
9F1000
130000
ENDCHAR
STARTCHAR q
ENCODING 113
SWIDTH 582 0
DWIDTH 6 0
BBX 6 9 0 -3
BITMAP
003131
1DFEF6
9F9CF6
AF17F6
6FEFF6
07CBF6
0004F6
0004F6
000041
ENDCHAR
STARTCHAR r
ENCODING 114
SWIDTH 457 0
DWIDTH 5 0
BBX 5 6 0 0
BITMAP
131400
9FEF50
9F9710
9F2000
9F2000
7E1000
ENDCHAR
STARTCHAR s
ENCODING 115
SWIDTH 489 0
DWIDTH 5 0
BBX 5 7 0 -1
BITMAP
035300
5FFF40
7F8500
2DFF50
699F90
6EFE30
001000
ENDCHAR
STARTCHAR t
ENCODING 116
SWIDTH 449 0
DWIDTH 4 0
BBX 5 7 0 0
BITMAP
0DB000
2ED300
CFFF50
5FE710
0EC000
0DF900
05DE00
ENDCHAR
STARTCHAR u
ENCODING 117
SWIDTH 606 0
DWIDTH 6 0
BBX 6 6 0 0
BITMAP
130031
9F21FA
9F21FA
8F33FA
5FEEFA
08EAE8
ENDCHAR
STARTCHAR v
ENCODING 118
SWIDTH 638 0
DWIDTH 6 0
BBX 7 6 0 0
BITMAP
13001300
BE10AF20
6F93FC00
0CFCF300
03FF9000
009D1000
ENDCHAR
STARTCHAR w
ENCODING 119
SWIDTH 793 0
DWIDTH 8 0
BBX 8 6 0 0
BITMAP
13021031
BE1DD1EA
7FAFFAF6
1FFFFFE1
0AFABF90
03E45E20
ENDCHAR
STARTCHAR x
ENCODING 120
SWIDTH 567 0
DWIDTH 6 0
BBX 6 6 0 0
BITMAP
120040
BE48F6
4EFFC1
0AFF50
7FDFE3
9C14E4
ENDCHAR
STARTCHAR y
ENCODING 121
SWIDTH 604 0
DWIDTH 6 0
BBX 6 9 0 -3
BITMAP
130032
BE21EC
5FA6F7
0BFEE1
02FF90
00CF20
03FA00
08F400
014000
ENDCHAR
STARTCHAR z
ENCODING 122
SWIDTH 586 0
DWIDTH 6 0
BBX 6 6 0 0
BITMAP
144430
7FFFF6
27BFC1
06FC10
6FFCB5
8FFFF7
ENDCHAR
STARTCHAR braceleft
ENCODING 123
SWIDTH 381 0
DWIDTH 4 0
BBX 4 11 0 -3
BITMAP
0196
09E6
0BB0
0BB0
5E90
CF60
0BA0
0AB0
0AC1
06F9
0022
ENDCHAR
STARTCHAR bar
ENCODING 124
SWIDTH 217 0
DWIDTH 2 0
BBX 2 11 0 -3
BITMAP
57
9B
9C
9C
9C
9C
9C
9C
9C
9B
23
ENDCHAR
STARTCHAR braceright
ENCODING 125
SWIDTH 381 0
DWIDTH 4 0
BBX 4 11 0 -3
BITMAP
8800
8F60
0E80
0E80
0CC4
09F9
0D90
0E70
1E70
CF30
2200
ENDCHAR
STARTCHAR asciitilde
ENCODING 126
SWIDTH 651 0
DWIDTH 7 0
BBX 6 3 0 1
BITMAP
08B695
6FDFF7
140540
ENDCHAR
STARTCHAR exclamdown
ENCODING 161
SWIDTH 268 0
DWIDTH 3 0
BBX 3 9 0 -3
BITMAP
0100
8F30
5B20
2610
8F30
8F40
8F40
8F30
1400
ENDCHAR
STARTCHAR cent
ENCODING 162
SWIDTH 434 0
DWIDTH 4 0
BBX 4 8 0 -1
BITMAP
0190
02F0
2CFB
9E78
AD34
4FFE
03F2
01B0
ENDCHAR
STARTCHAR sterling
ENCODING 163
SWIDTH 675 0
DWIDTH 7 0
BBX 7 8 0 0
BITMAP
00144000
04EFFE20
0CE66C30
2EC41000
CFFF4000
1AF20000
0DF99940
1EFFFF70
ENDCHAR
STARTCHAR currency
ENCODING 164
SWIDTH 677 0
DWIDTH 7 0
BBX 7 8 0 0
BITMAP
55000730
7FCBCF40
2FEBED00
7F105F30
7F004F40
4FB7CE10
5FFFFE20
89001B50
ENDCHAR
STARTCHAR yen
ENCODING 165
SWIDTH 677 0
DWIDTH 7 0
BBX 7 8 0 0
BITMAP
13000400
BE205F80
5FB1DE20
0AFCF600
09FFF600
06BF9400
0BEFE800
027E5100
ENDCHAR
STARTCHAR brokenbar
ENCODING 166
SWIDTH 215 0
DWIDTH 2 0
BBX 2 11 0 -3
BITMAP
57
9B
9B
9B
68
22
9B
9B
9B
9B
12
ENDCHAR
STARTCHAR section
ENCODING 167
SWIDTH 560 0
DWIDTH 6 0
BBX 6 11 0 -3
BITMAP
05A830
5FFFC0
9F3330
5FFB50
7FBEF3
8F68F4
2EFFF1
025BF4
9E6BF3
4EFF90
013200
ENDCHAR
STARTCHAR dieresis
ENCODING 168
SWIDTH 489 0
DWIDTH 5 0
BBX 5 2 0 6
BITMAP
5A1880
8F2CC0
ENDCHAR
STARTCHAR copyright
ENCODING 169
SWIDTH 711 0
DWIDTH 7 0
BBX 7 7 0 1
BITMAP
00565100
1C888D20
86BFC4A0
B7C011C0
A6E662C0
5A5A7870
07DDD900
ENDCHAR
STARTCHAR ordfeminine
ENCODING 170
SWIDTH 445 0
DWIDTH 4 0
BBX 5 5 0 3
BITMAP
010100
4EEF00
AA7F10
8ECF10
177800
ENDCHAR
STARTCHAR guillemotleft
ENCODING 171
SWIDTH 668 0
DWIDTH 7 0
BBX 7 6 0 0
BITMAP
00200200
04F64F60
4FC5FC10
BF3BF300
2DE4DE20
02D52D40
ENDCHAR
STARTCHAR logicalnot
ENCODING 172
SWIDTH 526 0
DWIDTH 5 0
BBX 6 4 0 1
BITMAP
466650
CFFFF2
3557F2
0002B1
ENDCHAR
STARTCHAR registered
ENCODING 174
SWIDTH 711 0
DWIDTH 7 0
BBX 7 7 0 1
BITMAP
00565100
1CA98D20
86BED5A0
B3C9E2C0
A3CBE2C0
5A728A70
07DDD900
ENDCHAR
STARTCHAR degree
ENCODING 176
SWIDTH 407 0
DWIDTH 4 0
BBX 4 4 0 4
BITMAP
1891
9CCA
AA9B
3CC3
ENDCHAR
STARTCHAR plusminus
ENCODING 177
SWIDTH 505 0
DWIDTH 5 0
BBX 5 6 0 0
BITMAP
016100
27F730
BFFFB0
15F610
269630
8FFF90
ENDCHAR
STARTCHAR twosuperior
ENCODING 178
SWIDTH 455 0
DWIDTH 5 0
BBX 5 6 0 2
BITMAP
057100
7FFD00
BB6F20
17EC00
7FFA30
7DDD40
ENDCHAR
STARTCHAR threesuperior
ENCODING 179
SWIDTH 457 0
DWIDTH 5 0
BBX 5 6 0 2
BITMAP
057200
5FEE10
268F20
25CE20
AD9F30
2BD800
ENDCHAR
STARTCHAR acute
ENCODING 180
SWIDTH 605 0
DWIDTH 6 0
BBX 4 3 1 5
BITMAP
0593
6FD4
1300
ENDCHAR
STARTCHAR mu
ENCODING 181
SWIDTH 601 0
DWIDTH 6 0
BBX 6 9 0 -3
BITMAP
130031
9F22F9
9F22F9
9F33F9
9FEEF9
9FDAD7
9F2000
9F2000
120000
ENDCHAR
STARTCHAR paragraph
ENCODING 182
SWIDTH 614 0
DWIDTH 6 0
BBX 6 10 0 -3
BITMAP
012220
7FFEF8
AFF7C8
8FF7C8
04E7C8
00E7C8
00E7C8
00E7C8
00E6C8
003132
ENDCHAR
STARTCHAR periodcentered
ENCODING 183
SWIDTH 237 0
DWIDTH 2 0
BBX 3 2 0 2
BITMAP
AE10
8C10
ENDCHAR
STARTCHAR cedilla
ENCODING 184
SWIDTH 559 0
DWIDTH 6 0
BBX 3 3 1 -2
BITMAP
0410
1B90
1D60
ENDCHAR
STARTCHAR onesuperior
ENCODING 185
SWIDTH 321 0
DWIDTH 3 0
BBX 3 6 0 2
BITMAP
0240
4EC0
BFC0
0AC0
0AC0
0790
ENDCHAR
STARTCHAR ordmasculine
ENCODING 186
SWIDTH 439 0
DWIDTH 4 0
BBX 5 5 0 3
BITMAP
001000
3DF700
AB6F10
9DAE00
19B400
ENDCHAR
STARTCHAR guillemotright
ENCODING 187
SWIDTH 669 0
DWIDTH 7 0
BBX 7 6 0 0
BITMAP
11011000
BD1BD100
3ED5ED10
08F78F70
6FA6FA00
9A09A000
ENDCHAR
STARTCHAR onequarter
ENCODING 188
SWIDTH 786 0
DWIDTH 8 0
BBX 8 9 0 -1
BITMAP
05501900
5F907800
1A91D100
08987120
035D7BD4
0096AAE4
02C0ACF4
0A5000C3
02000000
ENDCHAR
STARTCHAR onehalf
ENCODING 189
SWIDTH 804 0
DWIDTH 8 0
BBX 8 9 0 -1
BITMAP
05501900
5F907800
1A91D100
08987310
035D9FD1
0096A5F3
02C04EC0
0A50BFF6
02000000
ENDCHAR
STARTCHAR threequarters
ENCODING 190
SWIDTH 842 0
DWIDTH 8 0
BBX 8 9 0 -1
BITMAP
08920550
3BB80D20
04E77800
6DBAD312
07897D9C
001D3F9C
00863CDC
02D0004B
00200000
ENDCHAR
STARTCHAR questiondown
ENCODING 191
SWIDTH 511 0
DWIDTH 5 0
BBX 5 9 0 -3
BITMAP
004100
05F800
018300
02A300
2DF300
AE3230
AE7DD0
2DFF50
003100
ENDCHAR
STARTCHAR Agrave
ENCODING 192
SWIDTH 765 0
DWIDTH 8 0
BBX 8 10 0 0
BITMAP
00661000
00BFE000
00056000
002FC000
009FF400
02FEFB00
09F6BF30
2FFFFFB0
8F977CF3
AD0004F5
ENDCHAR
STARTCHAR Aacute
ENCODING 193
SWIDTH 765 0
DWIDTH 8 0
BBX 8 10 0 0
BITMAP
00049400
004FE600
00061000
002FC000
009FF400
02FEFB00
09F6BF30
2FFFFFB0
8F977CF3
AD0004F5
ENDCHAR
STARTCHAR Acircumflex
ENCODING 194
SWIDTH 765 0
DWIDTH 8 0
BBX 8 10 0 0
BITMAP
005A8300
01FDEB00
00132100
002FC000
009FF400
02FEFB00
09F6BF30
2FFFFFB0
8F977CF3
AD0004F5
ENDCHAR
STARTCHAR Atilde
ENCODING 195
SWIDTH 765 0
DWIDTH 8 0
BBX 8 10 0 0
BITMAP
007A6700
01EBF700
00032000
002FC000
009FF400
02FEFB00
09F6BF30
2FFFFFB0
8F977CF3
AD0004F5
ENDCHAR
STARTCHAR Adieresis
ENCODING 196
SWIDTH 765 0
DWIDTH 8 0
BBX 8 10 0 0
BITMAP
03B36A00
05F59F10
00031000
002FC000
009FF400
02FEFB00
09F6BF30
2FFFFFB0
8F977CF3
AD0004F5
ENDCHAR
STARTCHAR Aring
ENCODING 197
SWIDTH 765 0
DWIDTH 8 0
BBX 8 10 0 0
BITMAP
00021000
004AB000
0058B100
002FC000
009FF400
02FEFB00
09F6BF30
1FFFFFB0
8F977CF3
AD0004F5
ENDCHAR
STARTCHAR AE
ENCODING 198
SWIDTH 1148 0
DWIDTH 11 0
BBX 12 8 0 0
BITMAP
000002555550
00003EFFFFF3
0002EFF97760
001DFDFA8700
01CF87FFFF10
0BFFFFF73200
AFB88BFDCCB1
CB0005FFFFE2
ENDCHAR
STARTCHAR Ccedilla
ENCODING 199
SWIDTH 679 0
DWIDTH 7 0
BBX 7 10 0 -2
BITMAP
00155100
06FFFF50
4FE77C30
9F400000
BF100000
8F700200
1EFCCF50
02BFFB20
0009C000
000AA000
ENDCHAR
STARTCHAR Egrave
ENCODING 200
SWIDTH 638 0
DWIDTH 6 0
BBX 7 10 0 0
BITMAP
00751000
01DFB000
15588400
9FFFFF10
9F877600
9F987000
9FFFF000
9F532000
9FCCCB00
7FFFFE10
ENDCHAR
STARTCHAR Eacute
ENCODING 201
SWIDTH 638 0
DWIDTH 6 0
BBX 7 10 0 0
BITMAP
00278000
00EFA000
15865400
9FFFFF10
9F877600
9F987000
9FFFF000
9F532000
9FCCCB00
7FFFFE10
ENDCHAR
STARTCHAR Ecircumflex
ENCODING 202
SWIDTH 638 0
DWIDTH 6 0
BBX 7 10 0 0
BITMAP
028A5000
0AECF200
15656400
9FFFFF10
9F877600
9F987000
9FFFF000
9F532000
9FCCCB00
7FFFFE10
ENDCHAR
STARTCHAR Edieresis
ENCODING 203
SWIDTH 638 0
DWIDTH 6 0
BBX 7 10 0 0
BITMAP
0982A400
0DC3F700
15555400
9FFFFF10
9F877600
9F987000
9FFFF000
9F532000
9FCCCB00
7FFFFE10
ENDCHAR
STARTCHAR Igrave
ENCODING 204
SWIDTH 267 0
DWIDTH 3 0
BBX 4 10 -1 0
BITMAP
2730
5FF5
0291
08F3
08F3
08F3
08F3
08F3
08F3
07E2
ENDCHAR
STARTCHAR Iacute
ENCODING 205
SWIDTH 269 0
DWIDTH 3 0
BBX 4 10 0 0
BITMAP
16A0
AFC1
3600
8F30
8F40
8F40
8F40
8F40
8F40
6E20
ENDCHAR
STARTCHAR Icircumflex
ENCODING 206
SWIDTH 270 0
DWIDTH 3 0
BBX 5 10 -1 0
BITMAP
27A600
8FCF30
024100
08F300
08F400
08F400
08F400
08F400
08F400
06E200
ENDCHAR
STARTCHAR Idieresis
ENCODING 207
SWIDTH 268 0
DWIDTH 3 0
BBX 5 10 -1 0
BITMAP
881A50
CD2F80
014000
08F300
08F400
08F400
08F400
08F400
08F400
06E300
ENDCHAR
STARTCHAR Eth
ENCODING 208
SWIDTH 775 0
DWIDTH 8 0
BBX 8 8 0 0
BITMAP
03554000
0DFFFD30
0DE79FE1
3EE308F6
AFFA05F7
0DD01BF4
0DFCEFB0
0BFFE810
ENDCHAR
STARTCHAR Ntilde
ENCODING 209
SWIDTH 720 0
DWIDTH 7 0
BBX 7 10 0 0
BITMAP
00997400
04DCF400
14000320
9F700EC0
9FF40EC0
9FFD1EC0
9F7FBEC0
9F29FFC0
9F20CFC0
7E102EA0
ENDCHAR
STARTCHAR Ograve
ENCODING 210
SWIDTH 775 0
DWIDTH 8 0
BBX 8 11 0 -1
BITMAP
00561000
00AFF100
0028A100
06FFFE40
3FD68FE1
9F3007F6
BF1005F7
9F600AF5
2EFBCFC0
03CFFB10
00011000
ENDCHAR
STARTCHAR Oacute
ENCODING 211
SWIDTH 775 0
DWIDTH 8 0
BBX 8 11 0 -1
BITMAP
00049400
005FE500
00295100
06FFFE40
3FD68FE1
9F3007F6
BF1005F7
9F600AF5
2EFBCFC0
03CFFB10
00011000
ENDCHAR
STARTCHAR Ocircumflex
ENCODING 212
SWIDTH 775 0
DWIDTH 8 0
BBX 8 11 0 -1
BITMAP
00498300
01EDEC00
00365200
06FFFE40
3FD68FE1
9F3007F6
BF1005F7
9F600AF5
2EFBCFC0
03CFFB10
00011000
ENDCHAR
STARTCHAR Otilde
ENCODING 213
SWIDTH 775 0
DWIDTH 8 0
BBX 8 11 0 -1
BITMAP
004A6900
00BBFB00
00265100
06FFFE40
3FD68FE1
9F3007F6
BF1005F7
9F600AF5
2EFBCFC0
03CFFB10
00011000
ENDCHAR
STARTCHAR Odieresis
ENCODING 214
SWIDTH 775 0
DWIDTH 8 0
BBX 8 11 0 -1
BITMAP
03B36A00
05F4AE10
00265100
06FFFE40
3FD68FE1
9F3007F6
BF1005F7
9F600AF5
2EFBCFC0
03CFFB10
00011000
ENDCHAR
STARTCHAR multiply
ENCODING 215
SWIDTH 521 0
DWIDTH 5 0
BBX 5 5 0 0
BITMAP
7C19A0
5FEF80
0CFE10
8FBFB0
470570
ENDCHAR
STARTCHAR Oslash
ENCODING 216
SWIDTH 775 0
DWIDTH 8 0
BBX 8 9 0 -1
BITMAP
00266B30
06FFFF60
3FD8FFE1
9F38FBF6
BF2EC5F7
8FCF5AF5
2EFFCFC0
07FFFB10
02711000
ENDCHAR
STARTCHAR Ugrave
ENCODING 217
SWIDTH 726 0
DWIDTH 7 0
BBX 7 11 0 -1
BITMAP
02830000
04EF7000
24152330
9F200DD0
9F300ED0
9F300ED0
9F300ED0
7F602FB0
1EFBEF50
03DFE600
00010000
ENDCHAR
STARTCHAR Uacute
ENCODING 218
SWIDTH 726 0
DWIDTH 7 0
BBX 7 11 0 -1
BITMAP
00049400
005FE500
24030330
9F200DD0
9F300ED0
9F300ED0
9F300ED0
7F602FB0
1EFBEF50
03DFE600
00010000
ENDCHAR
STARTCHAR Ucircumflex
ENCODING 219
SWIDTH 726 0
DWIDTH 7 0
BBX 7 11 0 -1
BITMAP
005A8200
02FCEA00
24101430
9F200DD0
9F300ED0
9F300ED0
9F300ED0
7F602FB0
1EFBEF50
03DFE600
00010000
ENDCHAR
STARTCHAR Udieresis
ENCODING 220
SWIDTH 726 0
DWIDTH 7 0
BBX 7 11 0 -1
BITMAP
05A18800
08F2DC00
24000330
9F200DD0
9F300ED0
9F300ED0
9F300ED0
7F602FB0
1EFBEF50
03DFE600
00010000
ENDCHAR
STARTCHAR Yacute
ENCODING 221
SWIDTH 686 0
DWIDTH 7 0
BBX 7 10 0 0
BITMAP
00279000
00CFB000
24210510
BF304F90
4FC1DF30
09FCF700
01DFC000
007F5000
007F5000
006F3000
ENDCHAR
STARTCHAR Thorn
ENCODING 222
SWIDTH 634 0
DWIDTH 6 0
BBX 6 8 0 0
BITMAP
240000
9F6410
9FFFE4
9F88EE
9F30BF
9FCDFB
9FFEA1
7E2000
ENDCHAR
STARTCHAR germandbls
ENCODING 223
SWIDTH 633 0
DWIDTH 6 0
BBX 6 9 0 -1
BITMAP
037730
5FFFF1
9F4AF1
9F4F80
9F3ED3
9F23DD
9F4ACF
9F5EF9
240000
ENDCHAR
STARTCHAR agrave
ENCODING 224
SWIDTH 596 0
DWIDTH 6 0
BBX 6 8 0 0
BITMAP
02A510
03DF80
003341
1CFEF8
8FACF8
BF25F8
7FDEF8
09EBE7
ENDCHAR
STARTCHAR aacute
ENCODING 225
SWIDTH 596 0
DWIDTH 6 0
BBX 6 8 0 0
BITMAP
004860
02FE70
006131
1CFEF8
8FACF8
BF25F8
7FDEF8
09EBE7
ENDCHAR
STARTCHAR acircumflex
ENCODING 226
SWIDTH 596 0
DWIDTH 6 0
BBX 6 8 0 0
BITMAP
028A50
09ECF2
014141
1CFEF8
8FACF8
BF25F8
7FDEF8
09EBE7
ENDCHAR
STARTCHAR atilde
ENCODING 227
SWIDTH 596 0
DWIDTH 6 0
BBX 6 8 0 0
BITMAP
03A791
09BED1
003131
1CFEF8
8FACF8
BF25F8
7FDEF8
09EBE7
ENDCHAR
STARTCHAR adieresis
ENCODING 228
SWIDTH 596 0
DWIDTH 6 0
BBX 6 8 0 0
BITMAP
0972A4
0EB3F6
013131
1CFEF8
8FACF8
BF25F8
7FDEF8
09EBE7
ENDCHAR
STARTCHAR aring
ENCODING 229
SWIDTH 596 0
DWIDTH 6 0
BBX 6 8 0 0
BITMAP
002600
009640
006731
1CFEF8
8FACF8
BF25F8
7FDEF8
09EBE7
ENDCHAR
STARTCHAR ae
ENCODING 230
SWIDTH 910 0
DWIDTH 9 0
BBX 9 7 0 -1
BITMAP
0143024200
5FFFCFFF50
5D6BFC4EC0
3ACCFEDE80
AE4AFD7940
6FFC6DFD50
0010000000
ENDCHAR
STARTCHAR ccedilla
ENCODING 231
SWIDTH 524 0
DWIDTH 5 0
BBX 5 8 0 -2
BITMAP
004410
1DFFC0
9FA980
BF2000
7FEDB0
09FF80
009D00
00B900
ENDCHAR
STARTCHAR egrave
ENCODING 232
SWIDTH 573 0
DWIDTH 6 0
BBX 6 9 0 -1
BITMAP
049400
05EF40
004810
1DFFD2
9F88F7
BFEEE3
7FA790
1AFFE2
000100
ENDCHAR
STARTCHAR eacute
ENCODING 233
SWIDTH 573 0
DWIDTH 6 0
BBX 6 9 0 -1
BITMAP
004950
04FE60
017510
1DFFD2
9F88F7
BFEEE3
7FA790
1AFFE2
000100
ENDCHAR
STARTCHAR ecircumflex
ENCODING 234
SWIDTH 573 0
DWIDTH 6 0
BBX 6 9 0 -1
BITMAP
049930
0EDDD0
024520
1DFFD2
9F88F7
BFEEE3
7FA790
1AFFE2
000100
ENDCHAR
STARTCHAR edieresis
ENCODING 235
SWIDTH 573 0
DWIDTH 6 0
BBX 6 9 0 -1
BITMAP
2B36A1
4F59F1
014410
1DFFD2
9F88F7
BFEEE3
7FA790
1AFFE2
000100
ENDCHAR
STARTCHAR igrave
ENCODING 236
SWIDTH 255 0
DWIDTH 3 0
BBX 4 8 -1 0
BITMAP
3950
4DF6
0161
09F2
09F2
09F2
09F2
07E1
ENDCHAR
STARTCHAR iacute
ENCODING 237
SWIDTH 255 0
DWIDTH 3 0
BBX 4 8 0 0
BITMAP
2790
CFB1
3500
9F20
9F20
9F20
9F20
7E10
ENDCHAR
STARTCHAR icircumflex
ENCODING 238
SWIDTH 255 0
DWIDTH 3 0
BBX 5 8 -1 0
BITMAP
28A500
9ECF30
023100
09F200
09F200
09F200
09F200
07E100
ENDCHAR
STARTCHAR idieresis
ENCODING 239
SWIDTH 255 0
DWIDTH 3 0
BBX 5 8 -1 0
BITMAP
972A40
DB3F70
013000
09F200
09F200
09F200
09F200
07E100
ENDCHAR
STARTCHAR eth
ENCODING 240
SWIDTH 585 0
DWIDTH 6 0
BBX 6 8 0 0
BITMAP
029C00
04FE40
0279D1
1BFEF5
8FABF8
AF03F8
7FCDF4
09FF70
ENDCHAR
STARTCHAR ntilde
ENCODING 241
SWIDTH 606 0
DWIDTH 6 0
BBX 6 8 0 0
BITMAP
04A690
0CBFB0
131300
9FEFC1
9FBBF7
9F32FA
9F21FA
7E11E8
ENDCHAR
STARTCHAR ograve
ENCODING 242
SWIDTH 600 0
DWIDTH 6 0
BBX 6 9 0 -1
BITMAP
039500
04DF60
004710
1DFFD1
8F99F9
BF11FB
7FDDF7
09FF90
000100
ENDCHAR
STARTCHAR oacute
ENCODING 243
SWIDTH 600 0
DWIDTH 6 0
BBX 6 9 0 -1
BITMAP
004850
02FE70
008510
1DFFD1
8F99F9
BF11FB
7FDDF7
09FF90
000100
ENDCHAR
STARTCHAR ocircumflex
ENCODING 244
SWIDTH 600 0
DWIDTH 6 0
BBX 6 9 0 -1
BITMAP
049940
0DDDE0
015520
1DFFD1
8F99F9
BF11FB
7FDDF7
09FF90
000100
ENDCHAR
STARTCHAR otilde
ENCODING 245
SWIDTH 600 0
DWIDTH 6 0
BBX 6 9 0 -1
BITMAP
05A690
0DBFA0
014510
1DFFD1
8F99F9
BF11FB
7FDDF7
09FF90
000100
ENDCHAR
STARTCHAR odieresis
ENCODING 246
SWIDTH 600 0
DWIDTH 6 0
BBX 6 9 0 -1
BITMAP
2A45A1
3F68F2
014410
1DFFD1
8F99F9
BF11FB
7FDDF7
09FF90
000100
ENDCHAR
STARTCHAR divide
ENCODING 247
SWIDTH 503 0
DWIDTH 5 0
BBX 5 6 0 0
BITMAP
016100
04F400
479740
AFFFA0
029200
03E300
ENDCHAR
STARTCHAR oslash
ENCODING 248
SWIDTH 600 0
DWIDTH 6 0
BBX 6 9 0 -2
BITMAP
0001B3
004AF4
1CFFF1
8F99F8
AF11FB
7FDDF7
1FFF90
6F6100
170000
ENDCHAR
STARTCHAR ugrave
ENCODING 249
SWIDTH 606 0
DWIDTH 6 0
BBX 6 8 0 0
BITMAP
039500
04DF60
130341
9F21FA
9F21FA
8F33FA
5FEEFA
08EAE8
ENDCHAR
STARTCHAR uacute
ENCODING 250
SWIDTH 606 0
DWIDTH 6 0
BBX 6 8 0 0
BITMAP
003870
00FF90
133131
9F21FA
9F21FA
8F33FA
5FEEFA
08EAE8
ENDCHAR
STARTCHAR ucircumflex
ENCODING 251
SWIDTH 606 0
DWIDTH 6 0
BBX 6 8 0 0
BITMAP
039940
0CEDE0
140041
9F21FA
9F21FA
8F33FA
5FEEFA
08EAE8
ENDCHAR
STARTCHAR udieresis
ENCODING 252
SWIDTH 606 0
DWIDTH 6 0
BBX 6 8 0 0
BITMAP
1A44A2
3F77F3
140041
9F21FA
9F21FA
8F33FA
5FEEFA
08EAE8
ENDCHAR
STARTCHAR yacute
ENCODING 253
SWIDTH 604 0
DWIDTH 6 0
BBX 6 11 0 -3
BITMAP
003870
01FE80
133132
BE21EC
5FA6F7
0BFEE1
02FF90
00CF20
03FA00
08F400
014000
ENDCHAR
STARTCHAR thorn
ENCODING 254
SWIDTH 580 0
DWIDTH 6 0
BBX 6 11 0 -3
BITMAP
6C0000
9F0000
9F2300
9FEFA0
9FACF5
9F24F7
9FDEF3
9FCE60
9F0000
8F0000
130000
ENDCHAR
STARTCHAR ydieresis
ENCODING 255
SWIDTH 604 0
DWIDTH 6 0
BBX 6 11 0 -3
BITMAP
1A63B3
1F95F4
140032
BE21EC
5FA6F7
0BFEE1
02FF90
00CF20
03FA00
08F400
014000
ENDCHAR
STARTCHAR dotlessi
ENCODING 305
SWIDTH 255 0
DWIDTH 3 0
BBX 3 6 0 0
BITMAP
1300
9F20
9F20
9F20
9F20
7E10
ENDCHAR
STARTCHAR Lslash
ENCODING 321
SWIDTH 687 0
DWIDTH 7 0
BBX 7 8 0 0
BITMAP
02400000
09F20000
09F30000
0AFD8000
AFF92000
1AF30000
09F97730
07FFFF80
ENDCHAR
STARTCHAR lslash
ENCODING 322
SWIDTH 468 0
DWIDTH 5 0
BBX 5 8 0 0
BITMAP
06A000
0AF100
0AF100
1BFD60
CFF720
2BF100
0AFA00
04EE00
ENDCHAR
STARTCHAR OE
ENCODING 338
SWIDTH 1092 0
DWIDTH 11 0
BBX 11 8 0 0
BITMAP
001555555520
06FFFFFFFFA0
4FE77FD77730
AF401FD88300
BF101FFFF800
8F701FC33100
1EFCBFECCB60
02AEFFFFFF80
ENDCHAR
STARTCHAR oe
ENCODING 339
SWIDTH 944 0
DWIDTH 9 0
BBX 10 7 0 -1
BITMAP
0044014300
1DFFDEFFA0
9F9AFF5BF2
BF11FFDEC1
7FDDFF8870
09FF9BFEA0
0010000000
ENDCHAR
STARTCHAR Scaron
ENCODING 352
SWIDTH 583 0
DWIDTH 6 0
BBX 6 11 0 -1
BITMAP
096870
0BFE90
027610
3EFFE1
8F7680
7FC720
09EFF3
2507F8
AFACF6
2BFF90
001000
ENDCHAR
STARTCHAR scaron
ENCODING 353
SWIDTH 489 0
DWIDTH 5 0
BBX 5 9 0 -1
BITMAP
596A10
6EFC20
037300
5FFF40
7F8500
2DFF50
699F90
6EFE30
001000
ENDCHAR
STARTCHAR Ydieresis
ENCODING 376
SWIDTH 686 0
DWIDTH 7 0
BBX 7 10 0 0
BITMAP
0791A600
0BD1F900
24000510
BF304F90
4FC1DF30
09FCF700
01DFC000
007F5000
007F5000
006F3000
ENDCHAR
STARTCHAR Zcaron
ENCODING 381
SWIDTH 643 0
DWIDTH 6 0
BBX 7 10 0 0
BITMAP
06869000
07EFB100
25665300
BFFFFE00
366DF800
005FC000
02EE2000
0BF60000
7FFBBA10
9FFFFF20
ENDCHAR
STARTCHAR zcaron
ENCODING 382
SWIDTH 586 0
DWIDTH 6 0
BBX 6 8 0 0
BITMAP
087780
0AFFA0
145530
7FFFF6
27BFC1
06FC10
6FFCB5
8FFFF7
ENDCHAR
STARTCHAR florin
ENCODING 402
SWIDTH 529 0
DWIDTH 5 0
BBX 6 11 0 -3
BITMAP
000360
007FF1
00ED40
1EFFE1
2CFDA0
04F700
06F500
08F300
4CF100
EF8000
320000
ENDCHAR
STARTCHAR circumflex
ENCODING 710
SWIDTH 603 0
DWIDTH 6 0
BBX 4 3 1 5
BITMAP
4994
DDDD
1001
ENDCHAR
STARTCHAR caron
ENCODING 711
SWIDTH 600 0
DWIDTH 6 0
BBX 4 3 1 5
BITMAP
8778
AFFA
0110
ENDCHAR
STARTCHAR dotaccent
ENCODING 729
SWIDTH 285 0
DWIDTH 3 0
BBX 3 2 0 7
BITMAP
3B30
4E40
ENDCHAR
STARTCHAR ring
ENCODING 730
SWIDTH 378 0
DWIDTH 4 0
BBX 4 4 0 6
BITMAP
0110
3BB1
49B1
0430
ENDCHAR
STARTCHAR ogonek
ENCODING 731
SWIDTH 570 0
DWIDTH 6 0
BBX 3 3 1 -2
BITMAP
0310
2D70
1C70
ENDCHAR
STARTCHAR tilde
ENCODING 732
SWIDTH 584 0
DWIDTH 6 0
BBX 5 2 0 6
BITMAP
07A660
2EBF70
ENDCHAR
STARTCHAR endash
ENCODING 8211
SWIDTH 561 0
DWIDTH 6 0
BBX 6 3 0 1
BITMAP
688882
CFFFF6
011110
ENDCHAR
STARTCHAR emdash
ENCODING 8212
SWIDTH 693 0
DWIDTH 7 0
BBX 7 3 0 1
BITMAP
68888850
CFFFFFB0
01111100
ENDCHAR
STARTCHAR quoteleft
ENCODING 8216
SWIDTH 237 0
DWIDTH 2 0
BBX 3 5 0 3
BITMAP
0300
4C00
AC00
AF10
0100
ENDCHAR
STARTCHAR quoteright
ENCODING 8217
SWIDTH 237 0
DWIDTH 2 0
BBX 3 5 0 3
BITMAP
2400
BF10
5F00
8800
1000
ENDCHAR
STARTCHAR quotesinglbase
ENCODING 8218
SWIDTH 237 0
DWIDTH 2 0
BBX 3 4 0 -2
BITMAP
8C00
9F10
4C00
6200
ENDCHAR
STARTCHAR quotedblleft
ENCODING 8220
SWIDTH 482 0
DWIDTH 5 0
BBX 5 5 0 3
BITMAP
030120
4C1C40
AC4F40
AF5F80
010100
ENDCHAR
STARTCHAR quotedblright
ENCODING 8221
SWIDTH 482 0
DWIDTH 5 0
BBX 5 5 0 3
BITMAP
240410
BF5F80
5F1D60
882C10
100000
ENDCHAR
STARTCHAR quotedblbase
ENCODING 8222
SWIDTH 482 0
DWIDTH 5 0
BBX 5 4 0 -2
BITMAP
8C3C50
9F4F80
4C1C40
622500
ENDCHAR
STARTCHAR dagger
ENCODING 8224
SWIDTH 527 0
DWIDTH 5 0
BBX 6 10 0 -2
BITMAP
016200
03F700
15F810
CFFFF1
48FB60
04F800
04F800
04F800
04F800
02D500
ENDCHAR
STARTCHAR daggerdbl
ENCODING 8225
SWIDTH 527 0
DWIDTH 5 0
BBX 6 10 0 -2
BITMAP
016200
03F700
15F810
CFFFF1
48FB60
04F800
CFFFF1
59FB70
04F800
02D500
ENDCHAR
STARTCHAR bullet
ENCODING 8226
SWIDTH 342 0
DWIDTH 3 0
BBX 4 4 0 1
BITMAP
2960
AFF2
9FE1
0420
ENDCHAR
STARTCHAR ellipsis
ENCODING 8230
SWIDTH 911 0
DWIDTH 9 0
BBX 9 2 0 0
BITMAP
8C03C40B90
9E14F60DB0
ENDCHAR
STARTCHAR perthousand
ENCODING 8240
SWIDTH 1223 0
DWIDTH 12 0
BBX 12 9 0 -1
BITMAP
034004500000
5FE80C200000
886B69000000
5FE8D2000000
034787A408A2
001D5EAD6DBB
00775D6E7B8C
01D11BF72DE5
002000000000
ENDCHAR
STARTCHAR guilsinglleft
ENCODING 8249
SWIDTH 383 0
DWIDTH 4 0
BBX 4 6 0 0
BITMAP
0020
04F8
4FE2
BF70
2DF5
02D6
ENDCHAR
STARTCHAR guilsinglright
ENCODING 8250
SWIDTH 383 0
DWIDTH 4 0
BBX 4 6 0 0
BITMAP
1200
BE30
4FE2
0AF9
7FC1
9B10
ENDCHAR
STARTCHAR fraction
ENCODING 8260
SWIDTH 433 0
DWIDTH 4 0
BBX 6 9 0 -1
BITMAP
000091
0004B0
000C30
005A00
00C200
069000
0D2000
680000
210000
ENDCHAR
STARTCHAR Euro
ENCODING 8364
SWIDTH 612 0
DWIDTH 6 0
BBX 6 8 0 0
BITMAP
005AB8
06FFFC
2DF641
AFEDD3
7FD882
5EF772
08FDC8
019EFB
ENDCHAR
STARTCHAR trademark
ENCODING 8482
SWIDTH 840 0
DWIDTH 8 0
BBX 8 5 0 2
BITMAP
45533104
AEE8EA9F
0A90EFFF
0A90EA9F
05508228
ENDCHAR
STARTCHAR minus
ENCODING 8722
SWIDTH 581 0
DWIDTH 6 0
BBX 6 3 0 1
BITMAP
588883
AFFFF7
011110
ENDCHAR
STARTCHAR f_f
ENCODING 64256
SWIDTH 803 0
DWIDTH 8 0
BBX 8 8 0 0
BITMAP
029B06B5
0BFE4FF8
2ED48F82
CFFFFFFD
5FE7AFA5
0EC06F50
0EC06F50
0CB05F40
ENDCHAR
STARTCHAR fi
ENCODING 64257
SWIDTH 709 0
DWIDTH 7 0
BBX 7 8 0 0
BITMAP
029A0A60
0BFE1E90
1ED40310
CFFF5FA0
5FE72FA0
0EC01FA0
0EC01FA0
0DB00E90
ENDCHAR
STARTCHAR fl
ENCODING 64258
SWIDTH 774 0
DWIDTH 8 0
BBX 8 8 0 0
BITMAP
029A1A50
0BFE2F90
1ED42F90
CFFF7F90
5FE73F90
0EC02F90
0EC01FE5
0DB00AF8
ENDCHAR
STARTCHAR f_f_i
ENCODING 64259
SWIDTH 1059 0
DWIDTH 11 0
BBX 11 8 0 0
BITMAP
029B06B54A10
0BFE4FF87F20
2ED48F821300
CFFFFFFD8F20
5FE7AFA58F30
0EC06F508F30
0EC06F508F30
0CB05F407E20
ENDCHAR
STARTCHAR .notdef
ENCODING -1
SWIDTH 500 0
DWIDTH 5 0
BBX 1 1 0 0
BITMAP
00
ENDCHAR
STARTCHAR .null
ENCODING -1
SWIDTH 0 0
DWIDTH 0 0
BBX 1 1 0 0
BITMAP
00
ENDCHAR
STARTCHAR nonmarkingreturn
ENCODING -1
SWIDTH 333 0
DWIDTH 3 0
BBX 1 1 0 0
BITMAP
00
ENDCHAR
STARTCHAR f_t
ENCODING -1
SWIDTH 814 0
DWIDTH 8 0
BBX 8 8 0 0
BITMAP
029B0000
0BFE4F60
2ED47F92
CFFFFFFE
5FE79FB6
0EC04F70
0EC03FD6
0CB008E9
ENDCHAR
STARTCHAR t_t
ENCODING -1
SWIDTH 794 0
DWIDTH 8 0
BBX 8 7 0 0
BITMAP
0DB06F30
2ED49F72
CFFFFFFB
5FE7BF94
0EC07F40
0DF96FC4
04DE1BF6
ENDCHAR
STARTCHAR l_l
ENCODING -1
SWIDTH 626 0
DWIDTH 6 0
BBX 7 8 0 0
BITMAP
5B198000
9F2ED000
9F2ED000
9F2ED000
9F2ED000
9F2ED000
8F9CFB00
2DB4DD10
ENDCHAR
STARTCHAR j_j
ENCODING -1
SWIDTH 521 0
DWIDTH 5 0
BBX 7 11 -2 -3
BITMAP
00590870
008F1DB0
00130220
009F2DC0
009F2EC0
009F2EC0
009F2EC0
009F2EC0
16EE4FB0
4FF5DF50
04103300
ENDCHAR
ENDFONT
